<svg xmlns="http://www.w3.org/2000/svg" viewBox="0 0 88 88"><title>Artboard-28</title><g id="Unbox"><path d="M86.8643,59.4961l-7-12A1.0008,1.0008,0,0,0,79,47H70V10a5.0059,5.0059,0,0,0-5-5H23a5.0059,5.0059,0,0,0-5,5V24a1,1,0,0,0,1,1h7V47H9a.9994.9994,0,0,0-.8638.4961l-7,12A1,1,0,0,0,2,61H8V82a1,1,0,0,0,1,1H79a1,1,0,0,0,1-1V61h6a1,1,0,0,0,.8643-1.5039ZM20,23V10a3,3,0,0,1,6,0V23Zm8,1V10a5.2626,5.2626,0,0,0-1.0024-3H65a3.0033,3.0033,0,0,1,3,3V47H28ZM9.5742,49H29.2588l-5.833,10H3.7412ZM10,61H24a.9994.9994,0,0,0,.8638-.4961L30,51.6989V81H10ZM78,81H32V51.6989l5.1362,8.805A.9994.9994,0,0,0,38,61H78ZM38.5742,59l-5.833-10H78.4258l5.833,10Z" style="fill:#1d1b1e"/><path d="M37.186,28.2109l1.3667.6836a1.001,1.001,0,0,0,.8946,0l1.3667-.6836A12.9281,12.9281,0,0,0,48,16.584V15a1,1,0,0,0-.47-.8477l-8-5a.9975.9975,0,0,0-1.06,0l-8,5A1,1,0,0,0,30,15v1.584A12.9272,12.9272,0,0,0,37.186,28.2109ZM32,15.5547l7-4.375,7,4.375V16.584a10.9388,10.9388,0,0,1-6.0806,9.8379l-.9194.46-.9194-.46A10.9388,10.9388,0,0,1,32,16.584Z" style="fill:#1d1b1e"/><path d="M38,22a.9967.9967,0,0,0,.707-.293l4-4a1,1,0,0,0-1.414-1.414L38,19.5859,36.707,18.293a1,1,0,0,0-1.414,1.414l2,2A.9967.9967,0,0,0,38,22Z" style="fill:#1d1b1e"/><path d="M51,14H65a1,1,0,0,0,0-2H51a1,1,0,0,0,0,2Z" style="fill:#1d1b1e"/><path d="M51,21H65a1,1,0,0,0,0-2H51a1,1,0,0,0,0,2Z" style="fill:#1d1b1e"/><path d="M65,26H48a1,1,0,0,0,0,2H65a1,1,0,0,0,0-2Z" style="fill:#1d1b1e"/><path d="M31,35H65a1,1,0,0,0,0-2H31a1,1,0,0,0,0,2Z" style="fill:#1d1b1e"/><path d="M65,42a1,1,0,0,0,0-2H31a1,1,0,0,0,0,2Z" style="fill:#1d1b1e"/><path d="M57,75H75a1,1,0,0,0,0-2H57a1,1,0,0,0,0,2Z" style="fill:#1d1b1e"/><path d="M75,77H67a1,1,0,0,0,0,2h8a1,1,0,0,0,0-2Z" style="fill:#1d1b1e"/></g></svg>